HIERARCHY
ROOT Hips
{
  OFFSET 90.7885 88.945 -76.2838
  CHANNELS 6 Xposition Yposition Zposition Zrotation Xrotation Yrotation
  JOINT LeftUpLeg
  {
    OFFSET 8.64259 1.95398 -2.38835
    CHANNELS 3 Zrotation Xrotation Yrotation
    JOINT LeftLeg
    {
      OFFSET 43.7702 0 0
      CHANNELS 3 Zrotation Xrotation Yrotation
      JOINT LeftFoot
      {
        OFFSET 40.6238 0 0
        CHANNELS 3 Zrotation Xrotation Yrotation
        JOINT LeftToeBase
        {
          OFFSET 12.7242 0 0
          CHANNELS 3 Zrotation Xrotation Yrotation
          End Site
          {
            OFFSET 0 0 0
          }
        }
      }
    }
  }
  JOINT RightUpLeg
  {
    OFFSET -8.2249 1.95398 -2.59336
    CHANNELS 3 Zrotation Xrotation Yrotation
    JOINT RightLeg
    {
      OFFSET 43.5653 0 0
      CHANNELS 3 Zrotation Xrotation Yrotation
      JOINT RightFoot
      {
        OFFSET 40.6238 0 0
        CHANNELS 3 Zrotation Xrotation Yrotation
        JOINT RightToeBase
        {
          OFFSET 12.7242 0 0
          CHANNELS 3 Zrotation Xrotation Yrotation
          End Site
          {
            OFFSET 0 0 0
          }
        }
      }
    }
  }
  JOINT Spine
  {
    OFFSET 0.165834 0.87714 6.61349
    CHANNELS 3 Zrotation Xrotation Yrotation
    JOINT Spine1
    {
      OFFSET 7.38963 1.71661e-005 0
      CHANNELS 3 Zrotation Xrotation Yrotation
      JOINT Spine2
      {
        OFFSET 11.9445 1.14441e-005 0
        CHANNELS 3 Zrotation Xrotation Yrotation
        JOINT Spine3
        {
          OFFSET 14.7254 4.19617e-005 0
          CHANNELS 3 Zrotation Xrotation Yrotation
          JOINT Spine4
          {
            OFFSET 10.9679 0 0
            CHANNELS 3 Zrotation Xrotation Yrotation
            JOINT RightShoulder
            {
              OFFSET 2.46616 -1.6653 3.69651
              CHANNELS 3 Zrotation Xrotation Yrotation
              JOINT RightArm
              {
                OFFSET 13.0012 0 0
                CHANNELS 3 Zrotation Xrotation Yrotation
                JOINT RightForeArm
                {
                  OFFSET 28.7848 1.52588e-005 0
                  CHANNELS 3 Zrotation Xrotation Yrotation
                  JOINT RightHand
                  {
                    OFFSET 26.5688 1.52588e-005 0
                    CHANNELS 3 Zrotation Xrotation Yrotation
                    End Site
                    {
                      OFFSET 0 0 0
                    }
                  }
                }
              }
            }
            JOINT LeftShoulder
            {
              OFFSET 2.38034 -1.29275 -3.7523
              CHANNELS 3 Zrotation Xrotation Yrotation
              JOINT LeftArm
              {
                OFFSET 16.3182 6.10352e-005 0
                CHANNELS 3 Zrotation Xrotation Yrotation
                JOINT LeftForeArm
                {
                  OFFSET 27.0901 0 0
                  CHANNELS 3 Zrotation Xrotation Yrotation
                  JOINT LeftHand
                  {
                    OFFSET 24.5451 1.52588e-005 0
                    CHANNELS 3 Zrotation Xrotation Yrotation
                    End Site
                    {
                      OFFSET 0 0 0
                    }
                  }
                }
              }
            }
            JOINT Neck
            {
              OFFSET 5.0226 -0.0266342 0
              CHANNELS 3 Zrotation Xrotation Yrotation
              JOINT Head
              {
                OFFSET 6.69363 2.86102e-005 0
                CHANNELS 3 Zrotation Xrotation Yrotation
                End Site
                {
                  OFFSET 0 0 0
                }
              }
            }
          }
        }
      }
    }
  }
}
MOTION
Frames:	11
Frame Time:	0.0416667
-50.8829 80.1534 16.5239 -81.7398 7.42829 -105.795 -173.997 10.3179 98.4194 -79.5026 26.8542 8.19889 59.698 0.166299 3.47902 35.7143 3.45888 -7.14785 166.139 24.6386 103.064 -50.6864 -1.48205 8.69428 109.4 -22.8821 2.75927 -2.94983 -3.98109 9.63731 0.487449 7.9646 -88.8523 10.9255 1.50142 2.1415 -0.746236 1.59422 2.07337 -23.2697 0.788632 2.49354 -3.25706 0.788644 2.49354 89.2322 -23.2433 -111.316 40.8218 -24.3358 19.3481 -31.6404 -9.07897 -74.7294 -33.1259 2.5382 -21.0736 -88.4617 -54.5673 81.857 13.2285 -2.01204 -17.9963 41.0767 -20.1003 -104.523 5.63806 -0.606506 -11.7263 23.8476 -3.48602 10.3888 -7.40489 -6.28179 -13.9774 
-55.1155 79.1335 16.9931 -81.7576 12.6286 -105.238 -173.577 18.6126 99.1181 -92.7535 13.6264 7.28604 63.5275 1.56087 4.7099 34.1231 3.33083 -6.43178 168.201 20.8878 103.483 -53.0256 -2.49014 6.76306 113.666 -25.1049 3.4103 -6.08179 -3.1271 8.61538 0.942431 8.17413 -89.2049 10.5115 2.2424 1.37964 -1.15809 2.30094 1.27958 -23.6975 1.72417 1.98978 -3.68483 1.72414 1.98978 90.3412 -23.3812 -108.824 35.1123 -21.1296 10.1857 -32.569 -6.70686 -77.4431 -32.1876 2.21663 -20.2049 -88.6886 -58.2612 82.1652 12.6161 5.74345 -9.76372 42.2163 -19.4004 -101.257 4.78085 -0.554298 -11.7785 24.0012 -4.63043 13.7427 -6.53564 -8.64834 -14.3337 
-59.5694 78.3473 17.336 -79.8698 19.0052 -104.661 -172.592 29.585 99.7883 -103.9 5.17461 6.82718 67.1151 2.91333 7.07612 30.7836 5.32413 -8.42329 171.085 17.8391 103.644 -54.3311 -2.50343 4.92248 116.851 -24.8168 7.04058 -1.47084 -2.38356 7.55584 1.38908 8.32405 -89.5489 10.2192 2.97383 0.64234 -1.44843 2.99923 0.510713 -24.005 2.64319 1.50693 -3.99233 2.64323 1.50695 90.8951 -22.7168 -107.905 28.7155 -14.9346 -0.321573 -36.5044 -5.74945 -81.8443 -31.0855 1.47289 -18.6826 -89.1564 -60.9875 81.9835 8.56841 9.52235 1.91144 43.3689 -18.8096 -99.4676 2.63416 -0.425319 -12.0165 27.5917 -4.05275 15.7788 -6.97746 -9.26779 -13.3745 
-64.521 77.9403 17.2256 -77.7618 24.5519 -106.419 -171.202 40.3826 97.6718 -111.083 5.11955 6.78331 71.3636 5.40998 10.6342 26.8697 6.91924 -9.38417 173.037 14.187 101.136 -54.0346 -2.72499 3.05365 120.799 -24.9736 9.95347 2.73877 -3.18931 8.49269 1.69782 8.45275 -89.4961 9.95991 3.61272 0.704311 -1.70611 3.6402 0.544419 -24.2736 3.2339 1.75854 -4.261 3.23388 1.75852 91.0481 -21.6471 -108.052 25.0775 -6.35164 -9.41031 -36.7985 -8.94194 -87.5851 -33.1685 1.17044 -17.1253 -88.5154 -61.2547 82.8793 1.51355 9.42953 15.5119 45.2483 -19.9189 -100.839 3.50238 -0.455071 -11.4671 30.4507 -3.66762 16.0355 -7.27762 -9.34304 -13.5539 
-69.9535 78.2519 16.564 -75.5257 28.2045 -108.817 -170.304 50.4442 94.6307 -112.788 6.34831 6.68244 74.364 7.181 10.7248 29.6442 7.04039 -10.5527 173.192 9.6524 97.4027 -50.9574 -7.31876 1.8185 120.433 -25.3603 8.93173 4.30857 -2.60974 7.58776 1.96441 8.46857 -89.2811 9.91997 4.24163 1.08187 -1.74434 4.28512 0.893812 -24.3211 3.72022 2.30807 -4.30842 3.72023 2.30807 90.4713 -20.2825 -110.034 23.3977 3.63451 -15.3333 -34.6449 -6.90492 -90.3519 -30.3109 1.58415 -19.3768 -86.5827 -60.546 85.3584 -5.2807 8.75363 27.3429 45.667 -22.1002 -103.263 4.09576 -0.507924 -11.8029 32.401 -4.5269 14.9849 -8.30216 -9.8889 -13.0631 
-76.1422 79.3016 14.9297 -73.6519 30.7772 -111.599 -168.735 57.5114 90.5182 -108.999 6.35085 5.99663 77.1217 8.48412 8.88948 31.1484 6.40151 -10.1673 172.515 4.25541 92.9473 -45.8272 -12.185 0.482149 114.825 -23.9166 6.43933 10.0163 -2.78087 7.64629 2.29348 8.44692 -88.9954 9.94824 5.02733 1.58306 -1.71366 5.0921 1.35976 -24.3024 4.31895 3.02285 -4.28979 4.31895 3.02285 90.3263 -18.8473 -111.127 22.1401 10.5832 -19.5767 -34.8146 -7.59873 -93.8863 -31.6924 1.49715 -18.6632 -84.6678 -59.5573 87.8288 -10.5195 10.1262 36.0251 43.8594 -24.054 -105.348 5.15589 -0.62138 -12.4168 32.863 -5.92556 14.352 -8.4568 -10.9694 -13.2009 
-82.8447 81.2511 12.0747 -72.7086 32.8261 -113.916 -167.537 60.8842 87.4243 -100.695 5.61696 4.60119 79.3057 8.93648 4.64667 31.5748 5.99708 -9.71473 172.033 -1.71242 89.0209 -39.2868 -13.5781 -1.76208 103.933 -19.5613 4.28763 19.2824 -5.6018 12.6099 2.75111 8.43676 -88.7531 9.95174 6.04931 1.98044 -1.70621 6.13058 1.7114 -24.3174 5.1742 3.71039 -4.30477 5.17419 3.71038 91.0241 -17.0487 -110.433 23.0419 15.7154 -21.5133 -35.0948 -8.81783 -97.8916 -34.4405 1.56066 -18.0746 -84.1926 -57.893 88.3097 -15.7391 11.8065 41.9425 44.2683 -25.2789 -104.904 5.55887 -0.692565 -13.0378 31.5791 -8.60628 14.0802 -6.89 -13.4221 -12.4561 
-89.8263 83.2189 8.51804 -72.1891 33.883 -115.765 -166.608 61.4791 84.885 -89.8386 5.35616 2.40882 83.5331 10.4587 2.74113 31.02 5.63116 -8.96932 170.478 -7.98104 85.6766 -30.7836 -19.153 -3.34376 87.082 -13.9081 -2.59872 28.2087 -6.40047 15.0536 3.14987 8.43396 -88.4432 9.93219 6.98461 2.5213 -1.72178 7.08876 2.21014 -24.3526 5.90377 4.50863 -4.33996 5.90376 4.50863 91.8498 -15.7826 -109.071 24.2263 17.8585 -20.9155 -35.9708 -6.32409 -103.74 -34.5963 0.727369 -15.1022 -84.9236 -54.8761 86.9544 -19.1369 10.7508 45.6065 46.4082 -26.3368 -104.625 6.86723 -0.750027 -12.5193 33.6076 -10.8762 12.8581 -9.95978 -14.9424 -12.6321 
-96.6612 85.1243 4.70805 -71.3887 34.5729 -117.417 -167.174 60.4592 84.1087 -77.4361 6.87656 -0.0800009 83.9838 10.3002 0.376106 30.5905 3.71684 -5.9516 169.853 -10.9134 83.4082 -27.2321 -22.5081 -5.27855 70.7658 -5.79983 -4.26197 29.2252 -5.73951 13.4962 3.47097 8.41196 -88.1176 9.94741 7.77246 3.10123 -1.70307 7.90133 2.75442 -24.3483 6.48118 5.29941 -4.33564 6.48119 5.29941 92.8245 -14.3908 -107.31 26.3263 18.6908 -20.0408 -36.9124 -5.57609 -106.003 -35.3071 0.496795 -14.3635 -86.11 -52.0486 84.8621 -20.8069 9.13662 47.0116 47.0143 -26.7842 -105.155 6.71482 -0.773601 -12.9471 35.9129 -13.0392 11.5617 -12.7349 -16.3429 -12.6566 
-103.345 86.2513 0.947745 -70.122 34.2058 -119.497 -167.889 58.7973 82.9733 -65.0622 8.75322 -2.701 80.9143 8.90771 -0.863683 31.3527 1.45271 -2.72029 170.927 -11.5286 82.6061 -28.9609 -20.3043 -7.21948 65.1971 -2.77117 -1.69144 12.0715 -1.22458 5.29755 3.54217 8.30821 -87.7612 10.1233 8.07811 3.76756 -1.52686 8.23597 3.40664 -24.1631 6.57327 6.02557 -4.15045 6.57328 6.02558 93.1458 -13.8047 -106.768 27.4279 18.1187 -18.6231 -36.9503 -4.91893 -108.106 -36.3259 0.167588 -12.9037 -87.2162 -50.5011 82.9857 -20.5173 8.18398 46.093 46.4411 -27.0031 -106.308 8.42077 -0.894655 -12.866 36.8266 -14.9545 9.07246 -13.1538 -17.1729 -11.3629 
-109.469 86.4539 -2.84183 -69.7087 33.9681 -119.032 -169.266 55.7902 84.2137 -54.6295 7.97531 -4.6861 78.9869 7.64831 -3.81807 33.0928 -1.78598 2.03474 174.113 -11.1805 85.531 -36.55 -16.4207 -7.61386 67.8131 -4.31667 -3.87003 14.6257 -1.81035 5.75652 3.44449 8.22775 -87.6902 10.2799 7.91769 3.90778 -1.37159 8.08185 3.55396 -23.9964 6.37845 6.11009 -3.98374 6.37844 6.11008 92.7377 -15.7053 -106.858 27.0198 14.2472 -17.0358 -35.7168 -4.23897 -109.329 -39.1486 0.210006 -12.0278 -87.9398 -52.452 82.2459 -16.7158 8.77537 41.8716 45.6053 -27.2581 -107.57 9.61877 -0.950151 -12.5411 39.4266 -16.1894 6.12647 -13.3491 -17.2751 -9.27267 
